<svg id="Layer_1" data-name="Layer 1" xmlns="http://www.w3.org/2000/svg" viewBox="0 0 1080 1080"><defs><style>.cls-1{fill:#835e54;}</style></defs><path class="cls-1" d="M1035.39,533.58c-4.5-3.76-3.3-7-1.81-11.32,32.82-81.77-81.1-138.24-131.83-71.81C849.19,510.74,807,580.78,746.3,633.51c-7.75,9.86-48.65,24.85-30.39,38.23,10.6,5,19.67,23.35,32.38,15.37,81.84-49,119.88-144.22,190.3-205.45,26.77-21.15,67.06,26.27,29.83,38.21-14.88,2.68-27.41,9.49-36.82,20.67C871.3,608.75,832,695.41,750.43,742.41c-47.91-127-179.57-14.24-315.22-175.86-183.7-201.92,15.56-546.2,282-483.61,9,1.33,17.2-1.48,19.94-8.23C746.51,39.22,611.39,28.2,586,25.54c-56.13-3.12-111.48,3.26-165.88,17.75-363.19,91.51-533.66,559-279.67,846.54,69.27,83.56,163.48,139.42,268.65,164.7,7.44,2.19,14.1-.76,16.82-8.23,5.27-13.36-9.63-19.42-19.43-24-47.4-22.8-90.53-52.11-127.69-89.15C143,804.28,73.55,606.92,117.72,422.81A316.33,316.33,0,0,1,133,375.88c10-22.85,44-9.81,37.83,14.33C46.13,857,622.77,1280.45,955.2,845.46,1000.63,783.22,1109.79,596,1035.39,533.58Zm-43.84,84.48c-16.23,6.6-26.62,18.33-36.52,32.19-71.32,100.48-142.43,210-262.77,255.68-74.43,15.84-153.63,2.45-229.63,6.56-51.47.11-88.5-32.29-101-67.26-17.49-48.88,10.06-98.93,60.86-108.71,41.65-2.74,126.07.19,126.07.72,37.35,0,74.7,0,112.05.07,17.94-2.26,39.7,13.48,36.92,30.48-2,13.15-13.62,22.39-29.36,22.4-32.95,0-65.91-.39-98.87-.58Q510,789.27,450.65,789c-18.94-.12-30.7,6.53-35.45,20.28-9.49,27.15,21.38,49.91,47.64,48.57,64,.82,128.07.56,192.09,1.49,29.74.42,54.75-9.35,77.09-28.58,24.2-20.82,49.92-39.89,73.73-61.13,54.92-52,92.8-118.74,138.49-178.49C974.8,542.14,1033.4,589.41,991.55,618.06Z"/></svg>